<svg id="Capa_1" enable-background="new 0 0 512 512" height="512" viewBox="0 0 512 512" width="512" xmlns="http://www.w3.org/2000/svg"><g><g><g><path d="m426.145 367.522-53.579-53.579c-8.16-8.16-13.265-18.879-14.457-30.357l-17.689-170.277c-.619-5.955-2.017-11.803-4.159-17.394l-32.706-85.37c-2.433-6.351-8.531-10.545-15.333-10.545-22.345 0-37.865 22.245-30.152 43.217l21.294 57.894c1.937 5.267 2.847 10.856 2.681 16.466l-2.045 68.947c-.05 1.682-.915 3.229-2.316 4.161-13.07 8.701-21.686 23.557-21.686 40.437v104.038c0 14.871 5.908 29.133 16.423 39.648l80.586 80.586z" fill="#fdd1a7"/><path d="m426.144 367.523-20.379 24.48-55.629-55.63c-8.156-8.168-13.259-18.881-14.458-30.367l-17.683-170.275c-.622-5.956-2.016-11.796-4.159-17.395l-32.705-85.362c-2.431-6.359-8.536-10.552-15.333-10.552-2.984 0-5.852.392-8.548 1.14 3.686-13.225 15.736-23.558 30.977-23.558 6.797 0 12.891 4.193 15.333 10.541l32.705 85.374c2.143 5.587 3.537 11.439 4.159 17.395l17.683 170.275c1.198 11.474 6.301 22.199 14.458 30.355z" fill="#ffbc8a"/><g><g><path d="m329.435 191.312v102.554c0 4.301-3.49 7.791-7.791 7.791-4.311 0-7.791-3.491-7.791-7.791v-102.554c0-5.121-4.166-9.277-9.287-9.277-9.027 0-18.159 3.013-25.992 7.895.873-.904 1.392-2.119 1.423-3.407l.447-14.98c7.791-3.314 16.04-5.09 24.122-5.09 13.712 0 24.869 11.147 24.869 24.859z" fill="#f5a871"/></g><g><path d="m500.927 406.113-102.845 102.844c-4.057 4.057-10.634 4.057-14.691 0l-42.125-42.125c-8.177-8.177-8.177-21.435 0-29.612l87.924-87.924c8.177-8.177 21.435-8.177 29.612 0l42.125 42.125c4.057 4.057 4.057 10.635 0 14.692z" fill="#1c96f9"/><path d="m458.805 349.293 42.124 42.124c4.057 4.057 4.057 10.634 0 14.691l-19.234 19.234-49.469-49.469c-8.178-8.178-21.44-8.178-29.618 0l26.58-26.58c8.178-8.179 21.439-8.179 29.617 0z" fill="#1785f8"/></g></g></g><g><path d="m85.852 367.522 53.579-53.579c8.16-8.16 13.265-18.879 14.457-30.357l17.689-170.276c.619-5.955 2.017-11.803 4.159-17.394l32.706-85.37c2.434-6.352 8.531-10.546 15.333-10.546 22.345 0 37.865 22.245 30.152 43.217l-21.294 57.894c-1.937 5.267-2.847 10.856-2.681 16.466l2.045 68.947c.05 1.682.915 3.229 2.316 4.161 13.07 8.701 21.686 23.557 21.686 40.437v104.038c0 14.871-5.907 29.133-16.423 39.648l-80.586 80.586z" fill="#fdd1a7"/><path d="m255.995 231.116v104.048c0 14.872-5.898 29.134-16.416 39.64l-80.593 80.593-17.476-21.001 63.037-63.048c10.518-10.506 16.427-24.768 16.427-39.64v-104.048c0-16.877-8.617-31.73-21.692-40.428-1.401-.932-2.267-2.48-2.317-4.162l-2.049-68.95c-.161-5.61.749-11.197 2.684-16.462l21.3-57.899c1.36-3.71 2.005-7.465 2.005-11.117 0-8.732-3.617-16.934-9.619-22.855 3.041-3.606 7.58-5.783 12.488-5.783 18.386 0 32.152 15.056 32.152 32.083 0 3.664-.634 7.419-2.004 11.128l-21.289 57.899c-1.935 5.265-2.846 10.852-2.684 16.462l2.049 68.951c.05 1.681.915 3.229 2.316 4.161 13.064 8.699 21.681 23.551 21.681 40.428z" fill="#ffbc8a"/><g><g><path d="m231.992 186.524c.041 1.288.561 2.493 1.423 3.407-7.833-4.883-16.954-7.895-25.992-7.895-5.111 0-9.277 4.155-9.277 9.277v102.554c0 4.301-3.491 7.791-7.791 7.791-4.301 0-7.791-3.491-7.791-7.791v-102.555c0-13.713 11.157-24.859 24.859-24.859 8.082 0 16.331 1.776 24.122 5.08z" fill="#ffbc8a"/></g><g><path d="m233.416 189.931c-7.833-4.883-16.954-7.895-25.992-7.895-3.605 0-6.742 2.067-8.28 5.09-1.319-.925-2.13-2.431-2.182-4.051l-.415-14.118c3.293-1.6 6.981-2.504 10.877-2.504 8.082 0 16.331 1.776 24.122 5.08l.447 14.99c.041 1.289.56 2.494 1.423 3.408z" fill="#f5a871"/></g><g><path d="m11.071 406.113 102.844 102.844c4.057 4.057 10.634 4.057 14.691 0l42.125-42.125c8.177-8.177 8.177-21.435 0-29.612l-87.924-87.924c-8.177-8.177-21.435-8.177-29.612 0l-42.125 42.125c-4.056 4.057-4.056 10.635.001 14.692z" fill="#1c96f9"/><path d="m170.736 466.836-42.132 42.122c-4.057 4.056-10.634 4.056-14.691-.001l-17.331-17.331 49.466-49.478c8.179-8.179 8.179-21.427 0-29.606l24.687 24.676c8.169 8.179 8.169 21.439.001 29.618z" fill="#1785f8"/></g></g></g></g><g><g><circle cx="68.856" cy="398.454" fill="#eaf6ff" r="13.995"/></g><g><circle cx="393.728" cy="449.161" fill="#eaf6ff" r="13.995"/></g></g></g></svg>